<svg width="18" height="25" viewBox="0 0 18 25" fill="none" xmlns="http://www.w3.org/2000/svg">
<path opacity="0.5" d="M7.04297 17.9999C7.13384 18 7.21614 18.0511 7.25098 18.1288C7.28556 18.2065 7.26619 18.2958 7.20215 18.3554L4.6709 20.5614C6.24643 21.9492 8.48412 22.4855 10.5889 21.9794C12.6939 21.4731 14.3678 19.9958 15.0146 18.0731L17.5918 18.8192C16.6596 21.59 14.2355 23.7113 11.1953 24.4169C8.15518 25.1223 4.93738 24.3104 2.7041 22.2743L0.384766 24.2958C0.320468 24.3555 0.222812 24.3739 0.138672 24.3417C0.0546279 24.3095 1.93258e-05 24.2326 0 24.1483V17.9999H7.04297ZM6.78613 8.2538C9.81883 7.54423 13.0326 8.34544 15.2695 10.37L17.6162 8.29189C17.6803 8.23245 17.7764 8.21417 17.8604 8.24599C17.9443 8.27786 17.9994 8.35336 18 8.4374V14.6669H10.9824C10.8914 14.6668 10.8092 14.6159 10.7744 14.538C10.7396 14.4601 10.7588 14.37 10.8232 14.3104L13.3203 12.0976C11.7436 10.7135 9.5066 10.1807 7.4043 10.6884C5.30208 11.1961 3.63129 12.6729 2.98535 14.5936L0.408203 13.8476C1.33787 11.0822 3.75363 8.96347 6.78613 8.2538Z" fill="white"/>
</svg>
